<?xml version="1.0" standalone="no"?>
<!DOCTYPE svg PUBLIC "-//W3C//DTD SVG 20010904//EN"
 "http://www.w3.org/TR/2001/REC-SVG-20010904/DTD/svg10.dtd">
<svg version="1.0" xmlns="http://www.w3.org/2000/svg"
 width="310.000000pt" height="310.000000pt" viewBox="0 0 310.000000 310.000000"
 preserveAspectRatio="xMidYMid meet">
<metadata>
Created by potrace 1.14, written by Peter Selinger 2001-2017
</metadata>
<g transform="translate(0.000000,310.000000) scale(0.100000,-0.100000)"
fill="#000000" stroke="none">
<path d="M1455 2040 c-116 -10 -290 -50 -387 -87 -168 -66 -305 -169 -364
-275 -26 -47 -29 -62 -29 -138 0 -68 5 -93 22 -126 l22 -42 -32 -6 c-89 -15
-306 -28 -412 -23 l-120 5 85 -14 c47 -8 184 -17 304 -20 l220 -7 60 -48 c113
-92 269 -158 469 -200 129 -27 407 -37 540 -20 429 56 726 246 744 476 6 76
-8 130 -52 195 -19 29 -35 54 -35 56 0 2 98 5 218 5 240 2 220 8 -93 29 l-180
13 -55 37 c-217 148 -578 222 -925 190z m416 -185 c124 -19 229 -44 229 -56 0
-5 -14 -9 -31 -9 -50 0 -254 -48 -367 -86 -56 -19 -213 -82 -348 -139 -232
-99 -391 -155 -440 -155 -37 0 -74 63 -74 126 0 139 215 269 525 318 124 19
381 20 506 1z m460 -174 c103 -87 105 -197 4 -290 -231 -213 -905 -259 -1277
-89 -38 17 -68 34 -68 38 0 5 24 13 53 20 60 14 243 88 470 189 231 103 387
149 632 185 101 15 110 12 186 -53z"/>
<path d="M2953 1763 c9 -2 23 -2 30 0 6 3 -1 5 -18 5 -16 0 -22 -2 -12 -5z"/>
</g>
</svg>
